<svg width="34" height="33" viewBox="0 0 34 33" fill="none" xmlns="http://www.w3.org/2000/svg">
<path d="M14.2255 30.3338C14.2255 31.7608 15.3824 32.9178 16.8095 32.9178C18.2365 32.9178 19.3934 31.7608 19.3934 30.3338V19.1366H30.5906C32.0177 19.1366 33.1746 17.9797 33.1746 16.5526C33.1746 15.1256 32.0177 13.9687 30.5906 13.9687H19.3934V2.77147C19.3934 1.34438 18.2365 0.1875 16.8095 0.1875C15.3824 0.1875 14.2255 1.34438 14.2255 2.77147V13.9687H3.02831C1.60121 13.9687 0.444336 15.1256 0.444336 16.5526C0.444336 17.9797 1.60121 19.1366 3.02831 19.1366H14.2255V30.3338Z" fill="#0B0B0B" fill-opacity="0.8"/>
</svg>
