<svg width="29" height="37" viewBox="0 0 29 37" fill="none" xmlns="http://www.w3.org/2000/svg">
<path d="M24.4086 12.3997H16.0107V24.1083C16.0107 24.451 15.8745 24.7796 15.6322 25.0219C15.3899 25.2642 15.0613 25.4003 14.7187 25.4003C14.376 25.4003 14.0474 25.2642 13.8051 25.0219C13.5628 24.7796 13.4267 24.451 13.4267 24.1083V12.3997H5.02878C3.82988 12.401 2.68045 12.8778 1.8327 13.7256C0.984948 14.5733 0.508118 15.7228 0.506836 16.9217V32.4255C0.508118 33.6244 0.984948 34.7738 1.8327 35.6216C2.68045 36.4693 3.82988 36.9462 5.02878 36.9474H24.4086C25.6075 36.9462 26.7569 36.4693 27.6046 35.6216C28.4524 34.7738 28.9292 33.6244 28.9305 32.4255V16.9217C28.9292 15.7228 28.4524 14.5733 27.6046 13.7256C26.7569 12.8778 25.6075 12.401 24.4086 12.3997ZM16.0107 5.18318L20.2653 9.43704C20.5096 9.66911 20.8348 9.79657 21.1717 9.79226C21.5086 9.78795 21.8305 9.6522 22.0688 9.41395C22.307 9.17571 22.4428 8.85382 22.4471 8.51692C22.4514 8.18002 22.3239 7.85476 22.0919 7.6105L15.6319 1.15058C15.3897 0.908464 15.0612 0.772461 14.7187 0.772461C14.3762 0.772461 14.0477 0.908464 13.8054 1.15058L7.34547 7.6105C7.11341 7.85476 6.98594 8.18002 6.99025 8.51692C6.99457 8.85382 7.13032 9.17571 7.36856 9.41395C7.60681 9.6522 7.92869 9.78795 8.26559 9.79226C8.60249 9.79657 8.92775 9.66911 9.17202 9.43704L13.4267 5.18318V12.3997H16.0107V5.18318Z" fill="#E3E0DA" fill-opacity="0.95"/>
</svg>
