<svg width="32" height="32" viewBox="0 0 32 32" fill="none" xmlns="http://www.w3.org/2000/svg">
<path d="M22.8043 0.494141C27.5612 0.494141 31.4175 4.35042 31.4175 9.10737V22.8885C31.4175 27.6455 27.5612 31.5018 22.8043 31.5018H9.02314C4.26619 31.5018 0.409912 27.6455 0.409912 22.8885V9.10737C0.409912 4.35042 4.26619 0.494141 9.02314 0.494141H22.8043ZM15.9137 9.10737C12.1082 9.10737 9.02314 12.1924 9.02314 15.998C9.02314 19.8035 12.1082 22.8885 15.9137 22.8885C19.7192 22.8885 22.8043 19.8035 22.8043 15.998C22.8043 12.1924 19.7192 9.10737 15.9137 9.10737ZM15.9137 12.5527C17.8166 12.5527 19.359 14.0951 19.359 15.998C19.359 17.9008 17.8166 19.4432 15.9137 19.4432C14.0109 19.4432 12.4684 17.9008 12.4684 15.998C12.4684 14.0951 14.0109 12.5527 15.9137 12.5527ZM23.6656 6.5234C22.7142 6.5234 21.943 7.29467 21.943 8.24605C21.943 9.19743 22.7142 9.96869 23.6656 9.96869C24.6171 9.96869 25.3883 9.19743 25.3883 8.24605C25.3883 7.29467 24.6171 6.5234 23.6656 6.5234Z" fill="#E3E0DA" fill-opacity="0.95"/>
</svg>
