<svg width="35" height="29" viewBox="0 0 35 29" fill="none" xmlns="http://www.w3.org/2000/svg">
<path fill-rule="evenodd" clip-rule="evenodd" d="M17.7379 0.862305C12.9375 0.862305 8.67208 3.02726 5.63516 5.70769C4.11034 7.05351 2.85381 8.56415 1.96808 10.0684C1.09847 11.5453 0.511475 13.1446 0.511475 14.6435C0.511475 16.1423 1.09847 17.7417 1.96808 19.2185C2.85381 20.7229 4.11034 22.2335 5.63516 23.5792C8.67208 26.2596 12.9375 28.4246 17.7379 28.4246C22.5384 28.4246 26.8039 26.2596 29.8407 23.5792C31.3654 22.2335 32.6221 20.7229 33.5077 19.2185C34.3775 17.7417 34.9644 16.1423 34.9644 14.6435C34.9644 13.1446 34.3775 11.5453 33.5077 10.0684C32.6221 8.56415 31.3654 7.05351 29.8407 5.70769C26.8039 3.02726 22.5384 0.862305 17.7379 0.862305ZM21.1832 14.6435C21.8029 14.6435 22.3843 14.48 22.8866 14.1937C22.8993 14.3418 22.9059 14.4919 22.9059 14.6435C22.9059 17.4977 20.5922 19.8114 17.7379 19.8114C14.8837 19.8114 12.57 17.4977 12.57 14.6435C12.57 11.7892 14.8837 9.47554 17.7379 9.47554C17.8895 9.47554 18.0396 9.48207 18.1877 9.49485C17.9014 9.99721 17.7379 10.5786 17.7379 11.1982C17.7379 13.101 19.2804 14.6435 21.1832 14.6435Z" fill="#0B0B0B" fill-opacity="0.8"/>
</svg>
