<svg width="35" height="36" viewBox="0 0 35 36" fill="none" xmlns="http://www.w3.org/2000/svg">
<path d="M17.3183 35.2244C26.8321 35.2244 34.5447 27.5118 34.5447 17.9979C34.5447 8.48403 26.8321 0.771484 17.3183 0.771484C7.80434 0.771484 0.0917969 8.48403 0.0917969 17.9979C0.0917969 24.8994 4.15021 30.8529 10.0107 33.6022L13.956 15.0555C14.1539 14.1249 15.0688 13.531 15.9994 13.729C16.93 13.9269 17.5238 14.8417 17.3258 15.7723C16.8525 17.9979 16.4399 18.8593 16.4585 19.8927C16.4876 21.5121 16.9286 22.3762 17.3562 22.8248C17.7913 23.2811 18.4216 23.5278 19.2428 23.5127C20.0816 23.4973 21.0309 23.2015 21.8721 22.6722C23.5041 21.6453 24.2088 19.8842 24.2088 17.9979C24.2088 14.1924 21.1238 11.1074 17.3183 11.1074C13.5127 11.1074 10.4277 14.1924 10.4277 17.9979C10.4277 18.9811 10.6325 19.9118 11.0003 20.7535C11.3812 21.6253 10.9832 22.6408 10.1114 23.0219C9.23962 23.4028 8.22408 23.0048 7.84317 22.133C7.28896 20.8644 6.98238 19.4648 6.98238 17.9979C6.98238 12.2896 11.6099 7.66207 17.3183 7.66207C23.0266 7.66207 27.6541 12.2896 27.6541 17.9979C27.6541 19.4639 27.3479 20.8629 26.7944 22.1307C26.1606 23.5909 25.0026 24.7729 23.7069 25.5883C22.4078 26.4057 20.8538 26.929 19.3058 26.9574C17.8959 26.9833 16.4256 26.5922 15.2426 25.5652L13.2887 34.7505C14.5813 35.0604 15.9307 35.2244 17.3183 35.2244Z" fill="#E3E0DA" fill-opacity="0.95"/>
</svg>
