<svg width="35" height="33" viewBox="0 0 35 33" fill="none" xmlns="http://www.w3.org/2000/svg">
<path fill-rule="evenodd" clip-rule="evenodd" d="M13.7559 0.810018C13.1204 0.352604 12.2241 0.138685 11.3426 0.461216C9.45242 1.15281 7.71847 2.16536 6.20644 3.43187C5.48796 4.03368 5.22518 4.91548 5.30315 5.69389C5.43302 6.9907 5.20413 8.24281 4.58102 9.32206C3.95761 10.4019 2.98705 11.2264 1.79825 11.7623C1.08379 12.0844 0.45011 12.7547 0.289508 13.6804C0.122342 14.6442 0.0354004 15.6342 0.0354004 16.6434C0.0354004 17.6523 0.122342 18.6425 0.289525 19.6061C0.450128 20.5319 1.0838 21.2022 1.79827 21.5243C2.98705 22.0602 3.95761 22.8849 4.58102 23.9646C5.20411 25.0438 5.433 26.2959 5.30315 27.5927C5.2252 28.3711 5.48797 29.253 6.20644 29.8547C7.71844 31.1212 9.45233 32.1337 11.3425 32.8252C12.224 33.1479 13.1204 32.9339 13.7558 32.4764C14.8147 31.7143 16.0145 31.2857 17.2619 31.2857C18.5092 31.2857 19.7091 31.7143 20.768 32.4764C21.4035 32.9339 22.2997 33.1479 23.1812 32.8252C25.0713 32.1337 26.8052 31.1212 28.3171 29.8549C29.0356 29.253 29.2983 28.3711 29.2205 27.5927C29.0906 26.2959 29.3194 25.0438 29.9424 23.9646C30.5659 22.8849 31.5366 22.0602 32.7254 21.5243C33.4399 21.2022 34.0737 20.5319 34.2342 19.6061C34.4013 18.6425 34.4883 17.6523 34.4883 16.6434C34.4883 15.6344 34.4013 14.6444 34.2342 13.6808C34.0737 12.755 33.4399 12.0846 32.7254 11.7626C31.5366 11.2267 30.5659 10.4021 29.9424 9.32229C29.3194 8.24298 29.0906 6.9908 29.2205 5.69391C29.2985 4.91545 29.0356 4.03359 28.3171 3.43175C26.8052 2.16531 25.0713 1.15279 23.181 0.461216C22.2996 0.138703 21.4033 0.352604 20.7678 0.810018C19.7091 1.57215 18.5092 2.00075 17.2619 2.00075C16.0145 2.00075 14.8147 1.57215 13.7559 0.810018ZM12.0939 16.6432C12.0939 13.7889 14.4076 11.4752 17.2619 11.4752C20.1161 11.4752 22.4298 13.7889 22.4298 16.6432C22.4298 19.4974 20.1161 21.8111 17.2619 21.8111C14.4076 21.8111 12.0939 19.4974 12.0939 16.6432Z" fill="#0B0B0B" fill-opacity="0.8"/>
</svg>
