<svg width="36" height="36" viewBox="0 0 36 36" fill="none" xmlns="http://www.w3.org/2000/svg">
<path fill-rule="evenodd" clip-rule="evenodd" d="M17.85 0.771484C8.33608 0.771484 0.623535 8.48403 0.623535 17.9979C0.623535 27.5118 8.33608 35.2244 17.85 35.2244C27.3638 35.2244 35.0765 27.5118 35.0765 17.9979C35.0765 8.48403 27.3638 0.771484 17.85 0.771484ZM9.6999 15.311C15.2829 13.7526 20.9051 14.538 25.7802 16.6434C26.6536 17.0205 27.6675 16.6183 28.0446 15.7449C28.4219 14.8715 28.0196 13.8576 27.1463 13.4804C21.6855 11.1221 15.2491 10.1851 8.77363 11.9925C7.85727 12.2483 7.32177 13.1985 7.57755 14.1149C7.83333 15.0312 8.78352 15.5668 9.6999 15.311ZM10.5198 20.2484C15.3236 18.9089 20.8495 19.7457 23.9211 21.6319C24.732 22.1299 25.7928 21.8761 26.2906 21.0655C26.7885 20.2546 26.5347 19.1938 25.724 18.696C21.7411 16.2502 15.2085 15.3644 9.59437 16.9297C8.67794 17.1854 8.14218 18.1354 8.39773 19.0519C8.65327 19.9683 9.60335 20.5041 10.5198 20.2484ZM11.2634 24.9926C13.2096 24.545 15.3746 24.539 17.2783 24.8344C19.2424 25.1392 20.6579 25.7211 21.2719 26.2227C22.0086 26.8246 23.0939 26.7152 23.6958 25.9785C24.2977 25.2417 24.1883 24.1564 23.4515 23.5545C22.1378 22.4811 20.0054 21.7711 17.8066 21.4298C15.5472 21.0792 12.9339 21.0732 10.4913 21.635C9.56414 21.8481 8.98535 22.7726 9.19854 23.6997C9.41175 24.627 10.3362 25.2058 11.2634 24.9926Z" fill="#E3E0DA" fill-opacity="0.95"/>
</svg>
