<svg width="28" height="36" viewBox="0 0 28 36" fill="none" xmlns="http://www.w3.org/2000/svg">
<path fill-rule="evenodd" clip-rule="evenodd" d="M17.2318 0.771484C19.1347 0.771484 20.6771 2.31399 20.6771 4.21678C20.6771 6.71001 22.4515 8.80212 24.8087 9.2812C26.6733 9.6602 27.8776 11.479 27.4986 13.3437C27.1197 15.2083 25.3009 16.4128 23.4361 16.0338C22.4697 15.8372 21.5448 15.5253 20.6771 15.1129V24.8885C20.6771 30.5969 16.0496 35.2244 10.3412 35.2244C4.6329 35.2244 0.00537109 30.5969 0.00537109 24.8885C0.00537109 20.0677 3.30264 16.0257 7.75983 14.8784C9.60256 14.4042 11.481 15.5135 11.9552 17.3563C12.4294 19.199 11.3201 21.0773 9.47738 21.5516C7.99065 21.9342 6.89596 23.2879 6.89596 24.8885C6.89596 26.7914 8.43847 28.3338 10.3412 28.3338C12.2441 28.3338 13.7865 26.7914 13.7865 24.8885V4.21678C13.7865 2.31399 15.329 0.771484 17.2318 0.771484Z" fill="#E3E0DA" fill-opacity="0.95"/>
</svg>
