<svg width="22" height="24" viewBox="0 0 22 24" fill="none" xmlns="http://www.w3.org/2000/svg">
<path d="M11.1017 12.7909C13.8528 12.7909 16.3562 13.5876 18.1964 14.7105C19.1162 15.2718 19.9011 15.9334 20.4683 16.6514C21.0265 17.3579 21.4376 18.2035 21.4376 19.1073C21.4376 20.0776 20.9655 20.8427 20.2861 21.388C19.6424 21.9048 18.7942 22.2467 17.8922 22.4855C16.0805 22.9652 13.6616 23.1268 11.1017 23.1268C8.54191 23.1268 6.12291 22.9652 4.31126 22.4855C3.40935 22.2467 2.56114 21.9048 1.91735 21.388C1.23803 20.8427 0.765869 20.0776 0.765869 19.1073C0.765869 18.2035 1.17706 17.3579 1.73511 16.6514C2.30233 15.9334 3.08734 15.2718 4.00705 14.7105C5.8473 13.5876 8.35072 12.7909 11.1017 12.7909ZM11.1017 0.158203C14.273 0.158203 16.8439 2.72906 16.8439 5.90036C16.8439 9.07166 14.273 11.6425 11.1017 11.6425C7.93045 11.6425 5.35959 9.07166 5.35959 5.90036C5.35959 2.72906 7.93045 0.158203 11.1017 0.158203Z" fill="#0B0B0B" fill-opacity="0.8"/>
</svg>
