<svg width="32" height="32" viewBox="0 0 32 32" fill="none" xmlns="http://www.w3.org/2000/svg">
<path d="M29.737 3.35119C30.3635 2.63519 30.2908 1.54689 29.5749 0.920396C28.8589 0.293887 27.7706 0.366445 27.144 1.08245L18.3401 11.1441L10.8695 1.18322C10.5442 0.749458 10.0336 0.494141 9.4914 0.494141H2.60082C1.94833 0.494141 1.35185 0.862825 1.06005 1.44642C0.76825 2.03002 0.831212 2.72842 1.22272 3.2504L12.3109 18.0346L3.02703 28.6448C2.40054 29.3607 2.4731 30.4491 3.1891 31.0756C3.90508 31.7021 4.99338 31.6296 5.61989 30.9135L14.4239 20.8519L21.8945 30.8127C22.2199 31.2465 22.7303 31.5019 23.2726 31.5019H30.1632C30.8157 31.5019 31.4121 31.1331 31.7039 30.5495C31.9957 29.9659 31.9328 29.2675 31.5413 28.7455L20.4531 13.9613L29.737 3.35119Z" fill="#E3E0DA" fill-opacity="0.95"/>
</svg>
